<?xml version="1.0" encoding="UTF-8" standalone="no"?>
<!-- Created with Inkscape (http://www.inkscape.org/) -->

<svg
   width="106.59329mm"
   height="104.17056mm"
   viewBox="0 0 106.59329 104.17056"
   version="1.1"
   id="svg1"
   xml:space="preserve"
   inkscape:export-filename="Tiqui-Logo-Neu.svg"
   inkscape:export-xdpi="96"
   inkscape:export-ydpi="96"
   xmlns:inkscape="http://www.inkscape.org/namespaces/inkscape"
   xmlns:sodipodi="http://sodipodi.sourceforge.net/DTD/sodipodi-0.dtd"
   xmlns="http://www.w3.org/2000/svg"
   xmlns:svg="http://www.w3.org/2000/svg"><sodipodi:namedview
     id="namedview1"
     pagecolor="#505050"
     bordercolor="#eeeeee"
     borderopacity="1"
     inkscape:showpageshadow="0"
     inkscape:pageopacity="0"
     inkscape:pagecheckerboard="0"
     inkscape:deskcolor="#505050"
     inkscape:document-units="mm"><inkscape:page
       x="0"
       y="0"
       width="106.59329"
       height="104.17056"
       id="page2"
       margin="0"
       bleed="0" /></sodipodi:namedview><defs
     id="defs1" /><g
     inkscape:label="Ebene 1"
     inkscape:groupmode="layer"
     id="layer1"
     transform="translate(-48.564218,-31.24147)"><path
       sodipodi:type="star"
       style="fill:#86929e;fill-opacity:1;stroke-width:3.26501"
       id="path16"
       inkscape:flatsided="true"
       sodipodi:sides="5"
       sodipodi:cx="54.822582"
       sodipodi:cy="39.741936"
       sodipodi:r1="61.216106"
       sodipodi:r2="49.524872"
       sodipodi:arg1="0.94178696"
       sodipodi:arg2="1.5701055"
       inkscape:rounded="0.11"
       inkscape:randomized="0"
       d="M 90.838712,89.241937 C 84.43773,93.899282 25.28229,93.940148 18.87488,89.291652 12.46747,84.643155 -5.8514333,28.395617 -3.4104492,20.865343 -0.96946503,13.33507 46.86427,-21.468687 54.780292,-21.474156 c 7.916021,-0.0055 55.797798,34.732165 58.249188,42.259059 2.45138,7.526894 -15.789787,63.799689 -22.190768,68.457034 z"
       inkscape:transform-center-x="0.011917612"
       inkscape:transform-center-y="-5.3194658"
       transform="matrix(0.9119312,0,0,0.9119312,51.877135,50.824424)" /><path
       id="rect15-5-2"
       style="fill:#ffffff;stroke-width:4.17379"
       d="m 82.142273,-75.657397 h 9.158097 v -11.4639 c -2.769155,-2.337556 -5.278861,-5.98511 -6.260083,-9.350334 -1.064603,-3.651169 -0.905056,-7.649729 0.457853,-11.200349 1.165186,-3.03554 3.205437,-5.72767 5.80223,-7.6817 v -11.96671 h -9.158097 z"
       transform="rotate(90)" /><path
       id="rect15-5-1-1-7"
       style="fill:#2d9c4c;fill-opacity:1;stroke-width:2.25569"
       d="m 101.38624,131.17431 0.001,0.0222 -7.673379,-9.30404 h 15.168349 z"
       sodipodi:nodetypes="ccccc" /><path
       style="fill:#ffffff;stroke-width:3.26501"
       d="m 96.479381,99.997332 c -0.14486,-1.26722 0.28566,-2.58905 1.14905,-3.52788 0.86338,-0.93882 2.14461,-1.47832 3.419499,-1.43986 1.27051,0.0383 2.50538,0.64348 3.34711,1.59593 0.84173,0.95245 1.28864,2.23399 1.26579,3.504868 -0.0213,1.18538 -0.43878,2.34857 -1.10887,3.32661 -0.65163,0.9511 -1.52504,1.72366 -2.35081,2.52823 -0.7797,0.75968 -1.52407,1.55619 -2.217739,2.39516 -0.8375,1.01293 -2.05199,3.49878 -2.52822,4.72379 -0.50384,1.29602 -0.57617,5.43574 -0.42137,5.43347 1.51719,-0.0223 5.627469,0.0301 8.139149,0.0665 0.18919,0.003 -0.058,-2.8438 0.0887,-3.48185 0.2224,-0.96695 0.69837,-1.86204 1.28629,-2.66129 0.89971,-1.22312 2.0544,-2.23015 3.14919,-3.28226 1.29152,-1.24118 2.52191,-2.57247 3.41532,-4.125 0.93072,-1.61737 1.4753,-3.45813 1.55242,-5.322578 0.0988,-2.38854 -0.57442,-4.78932 -1.81855,-6.830646 -1.50512,-2.469543 -3.84782,-4.416481 -6.54781,-5.452868 -2.69998,-1.036387 -5.7406,-1.157522 -8.517039,-0.347973 -2.77644,0.809549 -5.80554,2.987218 -7.54096,5.300724 -1.73543,2.313503 -2.598816,7.645041 -2.18854,7.641241 5.623374,-0.05213 5.6165,0.0182 8.42741,-0.0444 z"
       id="path15"
       sodipodi:nodetypes="csssssssssssssssssssscc" /><g
       id="g16"
       transform="translate(-1.5875)"><rect
         style="fill:#ffffff;stroke-width:2.85964"
         id="rect15-5"
         width="9.1581726"
         height="24.251614"
         x="99.040619"
         y="55.286495" /><path
         id="rect15-5-1"
         style="fill:#2d9c4c;fill-opacity:1;stroke-width:1.67131"
         d="m 91.467977,62.247691 10e-4,0.02222 -7.496181,9.281604 h 3.004981 v 7.986593 h 9.1581 v -7.986592 h 3.0055 z" /><rect
         style="fill:#ffffff;stroke-width:3.26501"
         id="rect15-4"
         width="9.1581726"
         height="31.614517"
         x="110.74387"
         y="47.923592" /></g></g></svg>
